<svg xmlns="http://www.w3.org/2000/svg" viewBox="0 0 64 64">
  <title>Atlas Byte</title>
  <rect x="4" y="5" width="56" height="55" rx="16" fill="#090a0d" stroke="#3a414d" stroke-width="2"/>
  <path d="M42 10l5-6" fill="none" stroke="#d6a034" stroke-width="3" stroke-linecap="round"/>
  <circle cx="49" cy="3.8" r="3" fill="#f7f8fa" stroke="#d6a034" stroke-width="2"/>
  <circle cx="32" cy="31" r="20" fill="#d6a034"/>
  <path d="M12 31h40M32 11v40M17 21h30M17 41h30M23 13c-6 11-6 25 0 36M41 13c6 11 6 25 0 36"
        fill="none" stroke="#20242d" stroke-width="2" opacity=".9"/>
  <path d="M11 22h17v4h4v-4h21v14h-4v4H34v-4h-4v4H15v-4h-4z" fill="#090a0d"/>
  <path d="M16 25h4v4h4v4h-4v-4h-4zm22 0h4v4h4v4h-4v-4h-4z" fill="#f7f8fa"/>
  <path d="M25 47c4 3 10 3 14 0" fill="none" stroke="#090a0d" stroke-width="2.5" stroke-linecap="round"/>
</svg>
